<?xml version="1.0" encoding="UTF-8"?>
<svg version="1.1" viewBox="0 0 2048 821" width="1280" height="1280" xmlns="http://www.w3.org/2000/svg">
<path transform="translate(531,148)" d="m0 0h10l14 5 11 8 7 8h17l12 3 12 7 8 7 7 10 5 12 3 10 15 4 12 7 5 4 7 10 5 10 2 10 1 25 12 11 7 9 4 10 1 5v25l-4 11-3 5v7l6 14 1 5v24l-2 9-7 12-6 7-11 6v16l-3 14-5 12-9 12-11 7-9 4-7 3-5 13-6 11-11 12-14 7-13 2-25 1-7 8-7 4-12 2h-9l-11-2-10-6-7-7-7-12-3-12v-346l4-14 6-11 10-10 12-6zm19 42-3 1-2 6v31l2 2h15l2-2v-30l-3-6-6-2zm-24 1-2 1-1 37 1 1h6l1-1v-35l-2-3zm52 2 1 36h6v-33l-1-3zm20 3 1 31 3 3h13v-5l-4-5-4-14-2-8-4-2zm-86 57-1 1-1 36 2 3 9 1 7-1 3-4v-27l-1-7-2-2zm59 0-4 2-2 9v21l2 6 4 3h9l5-3v-34l-2-4zm54 0-1 1-1 14v20l2 5 8 1 8-3 2-2v-21l-1-11-4-4zm-24 1v19l1 20h7l-1-39zm-56 1-1 36 1 1h6l1-5-1-32zm112 0-1 1v31h5l1-1v-21l-1-9zm-108 59-3 2-2 9v19l1 8 2 2h14l3-2v-34l-2-3-3-1zm56 0-4 2-2 5v29l3 4h14l4-2 1-2-1-32-3-3-3-1zm57 0-5 1-1 10v25l1 3 3 1h12l4-2v-16l-1-21-1-1zm-136 1-2 1v38h6l1-1v-16l-1-21zm112 0-2 1v21l1 17h6v-17l-1-22zm-59 1-1 3 1 34 2 1 4-1v-37zm-68 60-1 9v30l1 1h19l1-16v-11l-1-11-3-2zm60 0-4 2-2 9v23l2 6 11 1 6-2 1-1v-34l-1-3-4-1zm56 0-3 1-1 10v27l1 2 8 1 9-1 2-6v-12l-1-18-1-3zm-23 1-3 1v37l1 1h6l1-1-1-38zm-59 1-1 36 1 1h6l1-1-1-36zm114-1-3 1v38h7l-1-38zm20 1-3 1 1 35 2 2 6 1 2-2-3-8-2-27-1-2zm-130 60-3 2-2 13 1 22 4 3h11l4-3v-33l-4-4zm55 0-3 2-2 12v21l3 5h12l6-2 1-2-1-32-4-4zm-80 1-1 37 1 1h7l-1-38zm112 0v37l3 1 4-1v-18l-1-19zm-57 1v36h6v-36zm78 9-1 5 1 20 4-1v-17l-1-6zm-139 50-7 2-1 11v18l1 9 2 1h16l2-4v-29l-2-6-7-2zm52 1-3 2-2 8v23l3 7 3 1h8l6-3v-35l-3-3zm-22 1-3 1v37h6v-38zm54 0-2 2 1 10v22h5l2-2v-31l-1-1z" fill="#088E49"/>
<path transform="translate(428,148)" d="m0 0 14 1 10 4 6 4 8 8 6 12 3 13 1 9 1 35v272l-1 29-3 14-6 12-6 7-8 5-11 3h-13l-11-2-9-6-9-8-4 1h-23l-13-4-12-9-9-10-5-11-3-9-4-3-16-7-12-11-8-13-5-11-1-4v-10l1-6-3-5-9-7-9-13-5-11-2-9v-11l3-14 7-15-7-15-2-8v-24l5-12 7-10 10-9 2-1 1-29 3-10 6-10 7-8 11-8 10-4 11-2 2-11 5-12 9-11 10-8 11-5 13-3h12l11-10 14-8zm2 22v48l2 9 4 6 20 20v-7l-3-5-9-8-6-9-2-10-1-44zm-13 3-3 5-1 3-1 14v26l2 10 4 6 9 10h2l2 4 9 9 8 7 7 7h1v-7l-11-12-23-23-3-5-1-10v-29l1-15zm27 1v23l1 18 4 10 5 6h1v-8l-3-8-1-7-2-31-3-3zm-62 16-3 1v6l9-3 1-4zm-13 2-3 1-1 12v120h9l2-4-4-7-1-38v-39l-1-45zm12 11-2 1v17l9-1 2-2v-12l-2-3zm-26 7-2 1-1 9-1 20-3 1v2h9v-32zm45 22-4 2-2 3-15 4 1 52 1 29 1 12v8l3 6 11 11 11 9 13 11 11 9 15 13 8 8h1v-9l-7-7-11-9-15-13-14-12-11-9-7-8-4-10 1-1v-77l3-10 9-1 10 3 2 11 1 65 3 9 5 6 11 9 14 11 9 8h2v-6l-6-7 1-27 3-6 1-1v-5l-13 1 1 7v22l-2 3-5-4v-9l1-11-5-1-6 4-3 3-4-1-1-11v-54l10 10 4 6 8 4 3 3 1 4v18l2 1 6-3 3-7v-9l-12-13-26-26-7-9-4-9zm-80 9-1 3-1 73v28l8-1 1-4-2-3-1-40v-56zm16-1-3 1v44l1 59-1 12v32l1 1h10v-8l-3-5-2-2v-126l1-7zm59 14 1 17 1 61 3 8 9 9 8 7 13 11 17 13 6 5 3 3v-8l-5-5-11-10-14-11-13-11-7-7-1-2-1-27v-26l1-23-1-4zm-44 11-4 2 2 14 1 58v80l-4 6-14 14-13 10-12 10-2 3v6l5-1 10-9 14-11 10-9 7-7 5-10 1-14 1-37 2-5-1-4-1-2-1-93-1-1zm-47 5v14l1 1h5l1-1v-11l-1-3zm127 8-3 15-3 4v6l4 4h6l3-3v-6l-1-1-2-13-2-4zm-124 23-5 2 1 130 3 3h2l1-135zm-18 8-3 2v50l5-1 1-35v-16zm76 36-2 3 1 6 11 7 12 11 11 9 14 12 8 7 13 11 11 9 10 9 2 1v-8l-5-5-14-12-10-9-8-7-17-14-11-9-12-11-5-9-2-1zm-46 10-1 4-1 79 24-16 4-5v-6h-12l-3 12-6 7v-45l1-22 3-7-2-1zm43 9 2 3v61l-2 6-8 7-13 10-28 24-2 3 1 4 6-1 14-12 11-9 14-12 11-10 3-5v-18l1-37 5 2 4 10 9 4 6 4 1 2v139h5l1-1 1-19v-81l1-29 1-3 4 2 1 2 1 89 1 1h6l2-1 1-9-3-5-1-6v-59l9 7 4 6-1 5-1 14v11l2 2h4l1-17-1-13 6 3 3 4v29l-1 24v15h10l1-1v-5l-3-2v-53l5-3-1-4-16-15-14-12-10-8-13-11-28-24-10-8zm-74 12-1 1-1 24v26h5l1-50zm92 22v15l9-1 1-1v-9l-5-4zm2 23-3 2v8l2 4 6-2 3-3v-8zm4 13-5 3-5 6-10 8-13 12-11 9-16 13-3 3 2 4 5 3 6-1 9-17 2-2 4 1v46h5l1-10v-28l1-18 2-4 4 1 1 45v29l2 2h3l1-7v-46l1-29 4-6 5-3-1 93h6l1-31v-76zm43 33-3 3-1 10 1 3 6 1 4-1 1-2v-11l-2-3zm-15 50-2 1v22l2 5 5 3 1-20 1-10-1-1zm14 1v12l1 16-1 7h6l1-1 2-26v-8zm16 1v33l5-1 1-4 1-16 4-9v-2l-3-1z" fill="#FE922A"/>
<path transform="translate(1247,440)" d="m0 0 24 1 1 1v52l6-2 15-27 11-18 4-6 23-1h12l-2 4-9 11-7 11-13 18-10 14 2 4 19 29 13 21 6 9h5l5-10 11-36 16-52 7-21 1-1h29l3 5 7 26 12 37 10 33 7 20v5h-26l-4-4-6-21-1-2h-29l-5-1-3 10-4 17-2 1h-64l-3-3-15-26-11-19-5-5-5-2v54l-1 1h-24l-1-2v-124zm154 41-3 5-10 34 5 1h20l-1-8-7-28-2-4z" fill="#2A4A55"/>
<path transform="translate(423,155)" d="m0 0h19l9 4 10 10 7 13v21h-3l-4-9-9-15-5-5v-2l-4-2-8-2-12 3-2 2-5 2-3 7h-2l-2 4h-2l-1 3-8-1-7-1-17 3-5 3h-4l-2 4-5 5-4 7-2 30-10-4-8 1-14 5-8 5-5 6-6 13v10l5 12 4 10-4 4-13 6-6 4-1 50 6 2 5 4-1 4-8 6-2 51 16 8 10 3 2 4-7 2-4 3h-2l-1 4v8l4 13 6 10 2 4 4 2 8 5 12 5 6 2 4 2-1 3h-1l-1 5 4 6 3 3 5 10 6 5 10 7 5 2 9 2h8l6-2 3-3h6l8 8 1 5 10 4h10l7-3 5-2v-2h2l1-3 5-4 3-13-1-34 1-16-1-29 1-56 2-37 1-77 1-37 2-17v-6l2-2 2 35 1 249v35l-2 9-7 10-9 8-9 4-4 1h-12l-11-4-8-6-5-6-4-1-8 3h-13l-15-5-10-6-5-4-6-8-6-12-1-10-16-5-9-6-8-8-8-16-4-11v-9l1-9-5-5-9-7-6-7-5-11-3-10v-14l3-10 7-13-1-7-7-14-2-9v-12l3-12 5-10 9-10 9-6 1-4-3-13 1-12 4-10 6-10 9-9 11-7 17-4 3-13 8-16 7-7 13-8 12-4h19l14-14z" fill="#FE7B1B"/>
<path transform="translate(996,231)" d="m0 0h31l4 2 8 34 9 34 5 20 1 2 4-10 9-39 10-36 3-6 1-1h25l6 1v126h-24l-1-1-1-51-1-22-2 4-6 23-13 43-4 4h-11l-4-5-5-12-16-54-2-3v73l-1 1h-24l-2-2z" fill="#2A4A55"/>
<path transform="translate(1813,441)" d="m0 0h27l4 4 14 26 11 19 10 18 7 11v2h2l-1-3-1-33v-44h28v125l-2 1h-23l-5-4-14-25-12-21-13-23-5-5 1 7v71h-27l-1-1-1-124z" fill="#2A4A55"/>
<path transform="translate(1548,231)" d="m0 0h19l7 2 10 19 16 32 10 19 6 10v-82h18l7 2v124l-1 1h-23l-5-5-17-33-12-23-9-17-1-1v78l-1 1h-25v-126z" fill="#294A55"/>
<path transform="translate(886,440)" d="m0 0 27 1v54h45v-54h29v66l-1 60h-27l-1-1v-51l-45-1v52l-1 1h-26l-1-10v-116z" fill="#2A4B56"/>
<path transform="translate(1555,441)" d="m0 0h27l1 1v53l44-1 1-53h28v125l-1 1h-26l-1-1v-51l-45-1v52l-1 1h-26l-1-1z" fill="#2A4A55"/>
<path transform="translate(1724,439)" d="m0 0h21l16 4 10 7 7 8 5 10 3 9 1 8v35l-2 14-5 13-8 10-9 6-11 4-8 1h-19l-16-3-11-7-8-10-5-11-2-9-1-15v-19l1-15 3-12 6-10 7-8 12-7zm3 19-8 4-5 6-4 10-1 10v37l3 12 6 9 5 3 4 1h14l8-3 7-7 3-12v-51l-3-9-5-6-9-4z" fill="#2A4A55"/>
<path transform="translate(1661,231)" d="m0 0h35l14 1 13 4 8 6 7 7 7 12 3 11 1 11v23l-2 16-5 13-9 12-8 6-8 3-19 2h-37l-1-2v-124zm29 19-4 1v88h18l8-3 5-5 4-10 2-10v-32l-2-11-5-10-7-6-9-2z" fill="#2A4B56"/>
<path transform="translate(1247,231)" d="m0 0h29l21 1 13 4 10 8 6 12 2 8v12l-4 10-8 7-3 3 3 5 8 6 4 9 1 7 2 26 2 8-1 1h-25l-2-3-2-14-2-21-4-9-9-3-17-1 1 50-1 1h-23l-1-1-1-68v-51zm26 19-2 1v37h18l8-3 3-3 2-7v-10l-4-10-4-3-8-2z" fill="#2A4B56"/>
<path transform="translate(1050,441)" d="m0 0h29l3 5 7 24 11 35 14 45 6 15v2h-28l-4-4-4-17-2-5-33-1-5 12-5 15h-27l-1-4 6-17 17-56 9-27 4-13zm14 41-2 2-6 21-5 15 3 1h24l-11-38z" fill="#2A4A55"/>
<path transform="translate(428,148)" d="m0 0 14 1 10 4 6 4 8 8 6 12 3 13 1 9 1 35v272l-1 29-3 14-6 12-6 7-8 5-11 3h-13l-11-2-9-6-9-8-4 1h-23l-13-4-12-9-9-10-5-11-3-9-4-3-16-7-12-11-8-13-5-11-1-4v-10l1-6-3-5-9-7-9-13-5-11-2-9v-11l3-14 7-15-7-15-2-8v-24l5-12 7-10 10-9 2-1 1-29 3-10 6-10 7-8 11-8 10-4 11-2 2-11 5-12 9-11 10-8 11-5 13-3h12l11-10 14-8zm-5 7-12 6-13 13h-19l-16 6-11 8-6 7-7 14-3 13-17 4-11 7-10 10-6 10-3 9-1 12 3 15-4 4-9 7-7 8-5 11-2 10v12l3 11 7 14-1 7-8 16-1 5v14l5 15 6 10 10 9 6 4 1 2-1 9v9l6 16 6 11 10 10 12 6 11 3 2 13 7 12 6 7 11 7 13 5 4 1h13l10-3 5 4 5 6 12 6 4 1h12l11-4 10-8 7-9 2-5 1-6-1-349-3-10-6-11-10-10-9-4z" fill="#FEFDFC"/>
<path transform="translate(1169,231)" d="m0 0h18l5 2 8 26 12 42 7 25 8 29v3l-10 1-15-1-4-13-4-12-1-2h-33l-1 10-3 16-2 1h-26l-1-3 5-12 13-47 13-44 5-18 1-2zm7 40-4 15-6 22-1 4 1 1h18l5-1-1-9-8-28z" fill="#2A4A56"/>
<path transform="translate(1854,231)" d="m0 0h20l3 3 9 31 10 35 16 55v3h-25l-3-7-4-17v-3h-36l-1 9-3 17-1 1h-27l1-7 9-28 11-38 13-45 4-8zm7 41-3 8-8 29-1 3 1 1h19l6-1-10-37-2-3z" fill="#2A4A55"/>
<path transform="translate(531,148)" d="m0 0h10l14 5 11 8 7 8h17l12 3 12 7 8 7 7 10 5 12 3 10 15 4 12 7 5 4 7 10 5 10 2 10 1 25 12 11 7 9 4 10 1 5v25l-4 11-3 5v7l6 14 1 5v24l-2 9-7 12-6 7-11 6v16l-3 14-5 12-9 12-11 7-9 4-7 3-5 13-6 11-11 12-14 7-13 2-25 1-7 8-7 4-12 2h-9l-11-2-10-6-7-7-7-12-3-12v-346l4-14 6-11 10-10 12-6zm-5 7-10 4-9 8-7 14-2 8-1 22v324l2 10 6 12 4 5 9 6 12 4 12-2 10-5 13-10 8 1 5 1h11l11-4 13-7 7-6 6-10 3-6 3-12 8-3 12-6 9-7 7-7 6-12 2-9v-10l-1-4v-7l12-9 8-8 7-12 3-10v-11l-4-13-7-12-1-6 10-18 2-8v-11l-4-12-8-13-4-5-13-9 2-10 1-4-1-13-6-16-6-8-9-8-13-6-11-4h-2l-3-14-6-11-9-10-9-6-12-5-4-1h-15l-7-3-7-9-8-5-7-2z" fill="#FCFDFC"/>
<path transform="translate(918,230)" d="m0 0h23l10 3 8 6 7 7 6 12 1 8-3 3-20 1-3-5-4-9-7-6-9-1-7 3-5 7-1 9 4 6 5 4 14 7 16 7 9 7 7 8 4 9v16l-3 8-6 9-8 6-10 4-5 1h-19l-14-4-10-7-7-9-4-9-2-9 1-2 10-1h14l3 9 2 8 5 2 6 2h10l8-5 3-6v-8l-4-8-10-6-24-10-10-7-7-9-4-9v-12l3-9 8-11 9-6z" fill="#2A4B56"/>
<path transform="translate(1172,439)" d="m0 0h24l12 3 10 6 7 9 6 13 1 8-4 2h-22l-3-5-6-12-4-3-4-1h-10l-9 3-5 6-3 8-1 20v30l2 9 5 9 7 4 5 1h10l6-3h2l2-5 3-13 1-1 27 1 1 5-5 13-6 10-8 7-11 4-7 1h-21l-12-2-12-6-8-9-6-12-2-9v-53l4-13 6-11 8-7 8-4z" fill="#2A4A55"/>
<path transform="translate(1445,441)" d="m0 0h96v18l-34 2v105l-1 1h-26l-1-2-1-106-5 1h-26l-2-3z" fill="#2A4A55"/>
<path transform="translate(571,591)" d="m0 0 8 2 3 3 1 9-2 10-5 2-61 1h-105l-8-2-4-5-1-2v-7l3-7 4-3z" fill="#425864"/>
<path transform="translate(1341,231)" d="m0 0h85l1 5-1 14h-29l-1 108h-25l-1-6v-102h-30v-18z" fill="#2A4A55"/>
<path transform="translate(431,718)" d="m0 0h119l5 3 2 5v12l-3 5-4 2-115 1-7-3-4-5-1-3v-8l4-6z" fill="#3F5662"/>
<path transform="translate(1771,231)" d="m0 0h21l5 1v125l-1 1h-25l-1-2z" fill="#2A4B56"/>
<path transform="translate(1493,231)" d="m0 0h15l9 1 1 1v125h-25l-1-1v-104z" fill="#2B4B56"/>
<path transform="translate(512,632)" d="m0 0h9l2 1 1 27 20 1 1-25 1-4h15v69h-15l-1-2v-28h-20l-1 3-1 27h-14v-68z" fill="#3F5662"/>
<path transform="translate(419,632)" d="m0 0h38l4 2 1 2v16l-2 2h-11l-2-1 1-6-4-4h-16l-1 5 4 6 8 6 13 8 9 7 2 5v13l-2 7-2 1-11 1h-20l-12-1-4-3v-20l2-1 9 1 5 4 1 7 2 2 13 1 3-2v-7l-3-5-17-10-12-9-3-5v-19l2-2z" fill="#405763"/>
<path transform="translate(481,49)" d="m0 0h6l4 2 2 3 1 13v48l-1 13-3 2h-12l-5-4-1-6v-30l1-35 4-4z" fill="#425864"/>
<path transform="translate(703,138)" d="m0 0 9 2 3 3 1 7-6 8-11 12-8 7-20 20-8 6-4 1-9-10 1-6 9-10 30-30 8-7z" fill="#405763"/>
<path transform="translate(261,139)" d="m0 0 5 1 8 7 10 9 32 32 4 7-5 4-4 5-5 1-6-4-9-9-8-7-25-25-6-8 1-6z" fill="#405662"/>
<path transform="translate(731,355)" d="m0 0h64l10 1 2 2v14l-2 2-4 1h-71l-3-3-1-2v-10l2-4z" fill="#3F5662"/>
<path transform="translate(200,358)" d="m0 0h27l16 1 1 1v16l-3 2h-73l-5-2-1-4v-7l3-5 1-1z" fill="#425964"/>
<path transform="translate(309,530)" d="m0 0 5 3 6 7-1 5-9 10-31 31-10 8-7 1-8-8 1-5 18-20 18-18 8-7z" fill="#405762"/>
<path transform="translate(659,529)" d="m0 0 7 1 9 7 10 10 8 7 23 23 2 4-1 6-7 7-6-2-9-7-7-7-8-7-23-23-5-8 3-5z" fill="#405662"/>
<path transform="translate(449,756)" d="m0 0h83l-2 5-10 9-13 8-12 2h-13l-12-3-12-8-7-7z" fill="#3F5662"/>
<path transform="translate(478,632)" d="m0 0h10l4 1 1 2v65l-1 1h-14l-1-1v-53z" fill="#405763"/>
<path transform="translate(360,461)" d="m0 0 4 1 1 1 1 45v29l2 3-4-2-8-6-4-5-1-5h5v-38l1-18z" fill="#FE9530"/>
<path transform="translate(324,510)" d="m0 0h9l4 2 2 13 7 12 5 6 11 7 13 5 4 1h13l10-3 6 5v2h-6l-2-1-4 2h-23l-13-4-12-9-9-10-5-11-3-9-5-5z" fill="#FDFCFB"/>
<path transform="translate(285,311)" d="m0 0 2 2-1 48-5-5-5-8-2-7v-10l4-10 3-6z" fill="#FE9128"/>
<path transform="translate(286,377)" d="m0 0h1v24l-1 26-5-4-6-12-1-5 2-10 5-13z" fill="#FE9128"/>
<path transform="translate(572,382)" d="m0 0h7l1 1v17l1 8-6 3-5-2v-22z" fill="#0A904B"/>
<path transform="translate(664,319)" d="m0 0 6 1 1 3v24l-2 2h-6l-1-1v-28z" fill="#078F49"/>
<path transform="translate(552,443)" d="m0 0h5l2 7v14l-1 7-1 1h-6l-2-3v-15l1-9z" fill="#0D914D"/>
<path transform="translate(551,196)" d="m0 0h7l1 24-2 5-5 1-3-3v-18l1-8z" fill="#0A904B"/>
<path transform="translate(551,320)" d="m0 0h6l2 3v22l-3 4h-5l-1-1v-27z" fill="#078F49"/>
<path transform="translate(573,258)" d="m0 0h5l2 3v18l1 4-3 3h-7l-1-2v-17l1-7z" fill="#078F49"/>
<path transform="translate(575,505)" d="m0 0 4 1 1 6v20l-1 1h-7l-2-2v-20l2-5z" fill="#088F4A"/>
<path transform="translate(629,381)" d="m0 0 7 1 1 3v24l-1 2h-6l-1-1z" fill="#078F49"/>
<path transform="translate(632,257)" d="m0 0 4 1 1 4v23l-2 2-5-1-1-1v-27z" fill="#088F49"/>
<path transform="translate(517,380)" d="m0 0 6 1 1 1v28l-1 1h-6z" fill="#078F49"/>
<path transform="translate(608,321)" d="m0 0 6 1 1 17 1 7-9 1-1-1v-24z" fill="#0E924E"/>
<path transform="translate(518,504)" d="m0 0 5 1 1 3v25l-3 2-4-1v-29z" fill="#078F49"/>
<path transform="translate(518,257)" d="m0 0 5 1 1 3v25l-5 2-2-1v-29z" fill="#078F49"/>
<path transform="translate(608,445)" d="m0 0h6l1 3v16l1 5-3 2h-6l-1-1 1-24z" fill="#088F49"/>
<path transform="translate(1759,478)" d="m0 0 2 4 1 36-2 9h-1z" fill="#3F5662"/>
<path transform="translate(352,211)" d="m0 0h1v9l-1 11-2-1v-2h-2v-7z" fill="#FE9631"/>
<path transform="translate(603,209)" d="m0 0 2 3 4 9-1 4-5-2z" fill="#0B914C"/>
<path transform="translate(400,553)" d="m0 0 5 2 3 3v2h-6l-5-3-2-2z" fill="#FEF8F1"/>
</svg>
